<?xml version="1.0" encoding="UTF-8" standalone="no"?>
<svg width="341px" height="295px" viewBox="0 0 341 295" version="1.1" xmlns="http://www.w3.org/2000/svg" xmlns:xlink="http://www.w3.org/1999/xlink">
    <!-- Generator: Sketch 3.7.2 (28276) - http://www.bohemiancoding.com/sketch -->
    <title>Shape</title>
    <desc>Created with Sketch.</desc>
    <defs></defs>
    <g id="Page-1" stroke="none" stroke-width="1" fill="none" fill-rule="evenodd">
        <g id="Group" transform="translate(-86.000000, -110.000000)" fill="#FFFFFF">
            <path d="M392.009248,287.814706 C413.539521,278.752945 428.050996,260.144274 426.797299,235.979525 C426.449189,229.269239 424.951386,222.629845 422.459059,216.40177 C420.157999,210.651735 416.448805,205.838848 413.808878,200.311363 C408.376853,188.937771 405.884178,176.318472 401.380376,164.577516 C382.005585,114.069175 318.475731,98.7501124 272.566167,119.994112 C251.964779,129.527122 236.059296,146.587387 225.892932,166.83415 C241.644188,161.366209 259.477649,164.550172 272.428734,175.10713 C271.919666,175.810079 271.423502,176.517303 270.95048,177.233889 C249.336326,161.229596 217.788928,168.683389 205.261201,192.508646 C193.151616,215.538647 203.740798,245.035937 227.591941,255.015297 C242.041387,261.060975 258.972138,258.889488 271.450183,249.379335 C271.987414,250.037292 272.545189,250.681014 273.115431,251.309849 C258.586256,263.59585 237.659673,266.278881 220.569201,257.953413 C226.761253,267.948574 235.440435,276.165283 245.337024,282.358484 C238.009614,295.748862 233.038265,310.8329 232.686424,326.219337 C232.366582,340.20607 233.115762,355.311433 238.133498,368.503473 C225.396838,368.191571 210.800734,365.765895 201.849946,355.695794 C193.395461,346.18404 191.772501,332.268464 191.791596,320.013502 C191.815138,304.903248 195.128283,290.433372 197.137648,275.561363 C199.138328,260.753596 197.845848,245.25159 191.572096,231.578694 C178.949416,204.069087 144.947951,187.902966 116.632783,200.845956 C88.9528032,213.498581 75.5631849,251.351745 98.6364535,274.979719 C108.029249,284.598314 122.326412,289.690762 135.419962,285.738552 C147.688551,282.035321 157.476428,270.866754 158.723298,257.855299 C159.967918,244.867317 151.12606,231.253807 138.11401,228.583779 C131.517888,227.230282 125.160301,232.23197 125.614411,239.226446 C125.812392,242.27596 127.417825,245.151981 129.906525,246.904479 C132.668758,248.849581 136.180965,248.727854 137.854724,252.130831 C141.052556,258.632449 133.85488,265.574243 127.958361,266.513608 C120.854889,267.645295 113.591348,262.561856 110.018193,256.688052 C101.726157,243.056999 111.358734,226.079064 124.316707,219.797937 C136.761435,213.765596 151.714046,217.335926 162.123522,225.884367 C171.136575,233.286025 176.065626,244.360965 177.367349,255.855581 C178.996796,270.244077 174.655609,284.441466 172.931436,298.627664 C171.20959,312.794718 170.535806,327.449208 173.46109,341.506077 C176.165044,354.499391 182.328339,366.601904 192.697235,375.022688 C203.053454,383.433231 216.151441,387.226376 229.206774,388.489045 C237.392251,389.280712 245.64879,389.125236 253.836308,388.447449 C257.640246,390.818085 262.092691,392.64248 267.277069,393.893782 C269.132469,399.957794 274.704752,404.186257 281.103434,404.186257 L410.918985,404.186257 C426.96164,404.186257 427.065295,384.580436 425.068016,373.082055 C422.99432,361.143535 416.904267,350.100953 406.794543,343.277227 C406.719522,322.024095 400.694271,304.673835 392.009248,287.814706 L392.009248,287.814706 Z M262.585855,230.967313 C258.786434,234.962985 253.455728,237.46492 247.547281,237.46492 C236.042886,237.46492 226.683965,228.021702 226.683965,216.413647 C226.683965,204.805591 236.042886,195.362373 247.547281,195.362373 C253.240466,195.362373 258.403186,197.680204 262.171339,201.423271 C261.511078,206.087457 261.184209,211.25898 261.184209,217.118918 C261.184209,222.293292 261.673136,226.868144 262.585855,230.967313 L262.585855,230.967313 Z M310.535336,232.405042 C312.60176,221.714797 319.983456,212.404638 324.59372,202.696005 C328.632155,194.191553 331.211257,184.845815 336.590372,177.059181 C346.332908,162.956228 362.901407,154.50993 379.942388,155.273426 C388.462059,167.05772 391.473638,181.328958 396.14499,194.879388 C398.197899,200.834378 400.427217,206.737408 403.793672,212.074542 C407.768107,218.375499 410.77728,224.967454 411.890456,232.416638 L408.352614,231.272159 C403.083467,229.12856 399.716523,237.299978 403.185971,240.800717 L409.998925,247.675031 C410.377831,248.05735 410.803298,248.355862 411.245577,248.615768 C405.258411,272.27501 377.377238,279.18953 356.451701,281.295526 C332.131283,279.709132 305.262352,259.684357 310.535336,232.405042 L310.535336,232.405042 Z M380.187331,387.386708 L283.011322,387.386708 L282.99861,387.386708 L282.972452,387.386708 C282.640002,384.014418 282.228521,380.92292 284.337547,378.105176 C286.66698,374.992951 290.555216,372.963672 293.957664,371.321955 C304.344889,366.309955 315.990187,363.63435 327.292241,361.752241 C338.908138,359.817874 352.319585,357.795351 363.758515,361.540142 C374.656848,365.107956 381.940714,375.604578 380.187331,387.386708 L380.187331,387.386708 Z M384.635538,382.831105 C383.570666,366.977783 371.884352,357.265508 356.747982,355.597328 C366.522396,354.869288 377.258759,354.868338 385.306332,361.382555 C392.646594,367.324243 395.941098,378.130655 394.629713,387.386708 L384.559994,387.386708 C384.738844,385.869781 384.737868,384.353276 384.635538,382.831105 L384.635538,382.831105 Z M397.348952,371.863341 C394.21729,362.010758 386.506876,355.038629 376.672613,352.365523 C386.265386,352.100707 396.114123,354.014242 402.52414,361.840994 C408.040184,368.576214 410.252481,378.793838 409.087617,387.386708 L399.000319,387.386708 C399.60366,382.254142 398.908836,376.770752 397.348952,371.863341 L397.348952,371.863341 Z M395.343162,341.492423 C395.343162,344.577481 395.090023,347.70424 394.511549,350.735209 C388.936249,348.441008 382.918148,347.789368 376.940784,347.990206 C372.202886,331.15638 374.680181,312.366121 384.141572,297.636954 C390.437958,311.195442 395.343162,326.374918 395.343162,341.492423 L395.343162,341.492423 Z M363.628249,215.768218 C363.345045,206.494569 368.408453,198.812277 374.937749,198.60917 C381.467046,198.406151 386.989646,205.75935 387.272885,215.032998 C387.556157,224.306629 382.492785,231.988921 375.963488,232.192028 C369.434192,232.395048 363.911556,225.041849 363.628249,215.768218 L363.628249,215.768218 Z" id="Shape"></path>
        </g>
    </g>
</svg>